# Blender 4.2.23 LTS
# www.blender.org
o tmp_export_Cuerpo2:1
v -2.999999 -3.962502 -0.495491
v -2.999999 3.962498 -0.495491
v -2.999999 3.962498 -0.345491
v -2.999999 -3.962502 -0.345491
v 3.000001 3.962498 -0.495491
v 3.000001 3.962498 -0.345491
v 3.000001 -3.962502 -0.495491
v 3.000001 -3.962502 -0.345491
v 0.600001 2.442698 -0.345491
v 0.625883 2.446105 -0.345491
v 0.650001 2.456095 -0.345491
v 0.670712 2.471987 -0.345491
v 0.686604 2.492698 -0.345491
v 0.696594 2.516816 -0.345491
v 0.700001 2.542698 -0.345491
v 0.696594 2.568580 -0.345491
v 0.686604 2.592698 -0.345491
v 0.670712 2.613408 -0.345491
v 0.650001 2.629300 -0.345491
v 0.625883 2.639290 -0.345491
v 0.600001 2.642698 -0.345491
v 0.574119 2.639290 -0.345491
v 0.550001 2.629300 -0.345491
v 0.529291 2.613408 -0.345491
v 0.513399 2.592698 -0.345491
v 0.503409 2.568580 -0.345491
v 0.500001 2.542698 -0.345491
v 0.503409 2.516816 -0.345491
v 0.513399 2.492698 -0.345491
v 0.529291 2.471987 -0.345491
v 0.550001 2.456095 -0.345491
v 0.574119 2.446105 -0.345491
v -0.599999 -2.642702 -0.345491
v -0.574117 -2.639295 -0.345491
v -0.549999 -2.629305 -0.345491
v -0.529288 -2.613413 -0.345491
v -0.513396 -2.592702 -0.345491
v -0.503406 -2.568583 -0.345491
v -0.499999 -2.542702 -0.345491
v -0.503406 -2.516820 -0.345491
v -0.513396 -2.492702 -0.345491
v -0.529288 -2.471992 -0.345491
v -0.549999 -2.456100 -0.345491
v -0.574117 -2.446110 -0.345491
v -0.599999 -2.442702 -0.345491
v -0.625881 -2.446110 -0.345491
v -0.649999 -2.456100 -0.345491
v -0.670709 -2.471992 -0.345491
v -0.686601 -2.492702 -0.345491
v -0.696591 -2.516820 -0.345491
v -0.699999 -2.542702 -0.345491
v -0.696591 -2.568583 -0.345491
v -0.686601 -2.592702 -0.345491
v -0.670709 -2.613413 -0.345491
v -0.649999 -2.629305 -0.345491
v -0.625881 -2.639295 -0.345491
v 0.600001 -2.642702 -0.345491
v 0.625883 -2.639295 -0.345491
v 0.650001 -2.629305 -0.345491
v 0.670712 -2.613413 -0.345491
v 0.686604 -2.592702 -0.345491
v 0.696594 -2.568583 -0.345491
v 0.700001 -2.542702 -0.345491
v 0.696594 -2.516820 -0.345491
v 0.686604 -2.492702 -0.345491
v 0.670712 -2.471992 -0.345491
v 0.650001 -2.456100 -0.345491
v 0.625883 -2.446110 -0.345491
v 0.600001 -2.442702 -0.345491
v 0.574119 -2.446110 -0.345491
v 0.550001 -2.456100 -0.345491
v 0.529291 -2.471992 -0.345491
v 0.513399 -2.492702 -0.345491
v 0.503409 -2.516820 -0.345491
v 0.500001 -2.542702 -0.345491
v 0.503409 -2.568583 -0.345491
v 0.513399 -2.592702 -0.345491
v 0.529291 -2.613413 -0.345491
v 0.550001 -2.629305 -0.345491
v 0.574119 -2.639295 -0.345491
v -0.599999 2.442698 -0.345491
v -0.574117 2.446105 -0.345491
v -0.549999 2.456095 -0.345491
v -0.529288 2.471987 -0.345491
v -0.513396 2.492698 -0.345491
v -0.503406 2.516816 -0.345491
v -0.499999 2.542698 -0.345491
v -0.503406 2.568580 -0.345491
v -0.513396 2.592698 -0.345491
v -0.529288 2.613408 -0.345491
v -0.549999 2.629300 -0.345491
v -0.574117 2.639290 -0.345491
v -0.599999 2.642698 -0.345491
v -0.625881 2.639290 -0.345491
v -0.649999 2.629300 -0.345491
v -0.670709 2.613408 -0.345491
v -0.686601 2.592698 -0.345491
v -0.696591 2.568580 -0.345491
v -0.699999 2.542698 -0.345491
v -0.696591 2.516816 -0.345491
v -0.686601 2.492698 -0.345491
v -0.670709 2.471987 -0.345491
v -0.649999 2.456095 -0.345491
v -0.625881 2.446105 -0.345491
v -0.599999 -2.642702 -0.195492
v -0.574117 -2.639295 -0.195492
v -0.549999 -2.629305 -0.195492
v -0.529288 -2.613413 -0.195492
v -0.513396 -2.592702 -0.195492
v -0.503406 -2.568583 -0.195492
v -0.499999 -2.542702 -0.195492
v -0.503406 -2.516820 -0.195492
v -0.513396 -2.492702 -0.195492
v -0.529288 -2.471992 -0.195492
v -0.549999 -2.456100 -0.195492
v -0.574117 -2.446110 -0.195492
v -0.599999 -2.442702 -0.195492
v -0.625881 -2.446110 -0.195492
v -0.649999 -2.456100 -0.195492
v -0.670709 -2.471992 -0.195492
v -0.686601 -2.492702 -0.195492
v -0.696591 -2.516820 -0.195492
v -0.699999 -2.542702 -0.195492
v -0.696591 -2.568583 -0.195492
v -0.686601 -2.592702 -0.195492
v -0.670709 -2.613413 -0.195492
v -0.649999 -2.629305 -0.195492
v -0.625881 -2.639295 -0.195492
v -0.599999 2.442698 -0.195492
v -0.574117 2.446105 -0.195492
v -0.549999 2.456095 -0.195492
v -0.529288 2.471987 -0.195492
v -0.513396 2.492698 -0.195492
v -0.503406 2.516816 -0.195492
v -0.499999 2.542698 -0.195492
v -0.503406 2.568580 -0.195492
v -0.513396 2.592698 -0.195492
v -0.529288 2.613408 -0.195492
v -0.549999 2.629300 -0.195492
v -0.574117 2.639290 -0.195492
v -0.599999 2.642698 -0.195492
v -0.625881 2.639290 -0.195492
v -0.649999 2.629300 -0.195492
v -0.670709 2.613408 -0.195492
v -0.686601 2.592698 -0.195492
v -0.696591 2.568580 -0.195492
v -0.699999 2.542698 -0.195492
v -0.696591 2.516816 -0.195492
v -0.686601 2.492698 -0.195492
v -0.670709 2.471987 -0.195492
v -0.649999 2.456095 -0.195492
v -0.625881 2.446105 -0.195492
v 0.600001 -2.642702 -0.195492
v 0.625883 -2.639295 -0.195492
v 0.650001 -2.629305 -0.195492
v 0.670712 -2.613413 -0.195492
v 0.686604 -2.592702 -0.195492
v 0.696594 -2.568583 -0.195492
v 0.700001 -2.542702 -0.195492
v 0.696594 -2.516820 -0.195492
v 0.686604 -2.492702 -0.195492
v 0.670712 -2.471992 -0.195492
v 0.650001 -2.456100 -0.195492
v 0.625883 -2.446110 -0.195492
v 0.600001 -2.442702 -0.195492
v 0.574119 -2.446110 -0.195492
v 0.550001 -2.456100 -0.195492
v 0.529291 -2.471992 -0.195492
v 0.513399 -2.492702 -0.195492
v 0.503409 -2.516820 -0.195492
v 0.500001 -2.542702 -0.195492
v 0.503409 -2.568583 -0.195492
v 0.513399 -2.592702 -0.195492
v 0.529291 -2.613413 -0.195492
v 0.550001 -2.629305 -0.195492
v 0.574119 -2.639295 -0.195492
v 0.600001 2.442698 -0.195492
v 0.625883 2.446105 -0.195492
v 0.650001 2.456095 -0.195492
v 0.670712 2.471987 -0.195492
v 0.686604 2.492698 -0.195492
v 0.696594 2.516816 -0.195492
v 0.700001 2.542698 -0.195492
v 0.696594 2.568580 -0.195492
v 0.686604 2.592698 -0.195492
v 0.670712 2.613408 -0.195492
v 0.650001 2.629300 -0.195492
v 0.625883 2.639290 -0.195492
v 0.600001 2.642698 -0.195492
v 0.574119 2.639290 -0.195492
v 0.550001 2.629300 -0.195492
v 0.529291 2.613408 -0.195492
v 0.513399 2.592698 -0.195492
v 0.503409 2.568580 -0.195492
v 0.500001 2.542698 -0.195492
v 0.503409 2.516816 -0.195492
v 0.513399 2.492698 -0.195492
v 0.529291 2.471987 -0.195492
v 0.550001 2.456095 -0.195492
v 0.574119 2.446105 -0.195492
v 2.770106 -3.732607 -0.195492
v -2.770104 -3.732607 -0.195492
v -6.101600 -7.064102 3.504509
v 0.000001 -7.064102 3.504509
v 6.101601 -7.064102 3.504509
v 2.770106 3.732603 -0.195492
v 6.101601 -0.000002 3.504509
v 6.101601 7.064098 3.504509
v -2.770104 3.732603 -0.195492
v 0.000001 7.064098 3.504509
v -6.101600 7.064098 3.504509
v -6.101600 -0.000002 3.504509
v -6.601615 7.564115 3.504509
v 0.000001 7.564115 3.504509
v 6.601618 7.564115 3.504509
v 6.601618 -0.000002 3.504509
v 6.601618 -7.564117 3.504509
v 0.000001 -7.564117 3.504509
v -6.601615 -7.564117 3.504509
v -6.601615 -0.000002 3.504509
vn 1.0000 -0.0000 -0.0000
vn -0.0000 -1.0000 -0.0000
vn -1.0000 -0.0000 -0.0000
vn -0.0000 1.0000 -0.0000
vn -0.0000 -0.0000 -1.0000
vn -0.0003 -0.0000 -1.0000
vn 0.0003 -0.0000 -1.0000
vn 0.2587 0.9659 -0.0000
vn 0.0001 1.0000 -0.0000
vn -0.0001 1.0000 -0.0000
vn -0.2587 0.9659 -0.0000
vn -0.2589 0.9659 -0.0000
vn -0.5000 0.8660 -0.0000
vn -0.4999 0.8661 -0.0000
vn -0.5001 0.8660 -0.0000
vn -0.7071 0.7072 -0.0000
vn -0.7072 0.7071 -0.0000
vn -0.8660 0.5001 -0.0000
vn -0.8661 0.4999 -0.0000
vn -0.9659 0.2589 -0.0000
vn -0.9659 0.2587 -0.0000
vn -1.0000 0.0001 -0.0000
vn -1.0000 -0.0001 -0.0000
vn -0.9659 -0.2587 -0.0000
vn -0.9659 -0.2589 -0.0000
vn -0.8661 -0.4999 -0.0000
vn -0.8660 -0.5001 -0.0000
vn -0.8660 -0.5000 -0.0000
vn -0.7072 -0.7070 -0.0000
vn -0.7072 -0.7071 -0.0000
vn -0.7071 -0.7071 -0.0000
vn -0.5001 -0.8660 -0.0000
vn -0.7070 -0.7072 -0.0000
vn -0.4999 -0.8661 -0.0000
vn -0.2589 -0.9659 -0.0000
vn -0.2587 -0.9660 -0.0000
vn -0.0001 -1.0000 -0.0000
vn -0.2588 -0.9659 -0.0000
vn 0.0001 -1.0000 -0.0000
vn 0.2588 -0.9659 -0.0000
vn 0.2587 -0.9660 -0.0000
vn 0.2589 -0.9659 -0.0000
vn 0.4999 -0.8661 -0.0000
vn 0.5001 -0.8660 -0.0000
vn 0.7071 -0.7072 -0.0000
vn 0.7072 -0.7071 -0.0000
vn 0.8660 -0.5001 -0.0000
vn 0.8661 -0.4999 -0.0000
vn 0.9659 -0.2589 -0.0000
vn 0.9659 -0.2588 -0.0000
vn 1.0000 -0.0001 -0.0000
vn 0.9659 -0.2587 -0.0000
vn 1.0000 0.0001 -0.0000
vn 0.9659 0.2587 -0.0000
vn 0.9659 0.2588 -0.0000
vn 0.9659 0.2589 -0.0000
vn 0.8661 0.4999 -0.0000
vn 0.8660 0.5001 -0.0000
vn 0.7072 0.7071 -0.0000
vn 0.7071 0.7071 -0.0000
vn 0.5001 0.8660 -0.0000
vn 0.5000 0.8660 -0.0000
vn 0.7070 0.7072 -0.0000
vn 0.4999 0.8661 -0.0000
vn 0.2589 0.9659 -0.0000
vn 0.7071 -0.7071 -0.0000
vn 0.9660 -0.2587 -0.0000
vn 0.9660 0.2587 -0.0000
vn -0.0000 0.7431 0.6691
vn -0.7431 -0.0000 0.6691
vn -0.0000 -0.7431 0.6691
vn 0.7431 -0.0000 0.6691
vn -0.0000 -0.0000 1.0000
vn -0.0003 -0.0000 1.0000
vn 0.0003 -0.0000 1.0000
vn -0.0005 -0.0000 1.0000
vn -0.0000 0.7431 -0.6691
vn 0.7431 -0.0000 -0.6691
vn -0.0000 -0.7431 -0.6691
vn -0.7431 -0.0000 -0.6691
vt -7.925000 0.000000
vt 0.000000 0.000000
vt -7.925000 0.150000
vt 0.000000 0.150000
vt -6.000000 0.000000
vt -6.000000 0.150000
vt 2.446107 0.625882
vt -2.446107 0.625882
vt 2.442700 0.600000
vt -2.442700 0.600000
vt 2.446107 0.574118
vt -2.446107 0.574118
vt 2.446107 -0.574118
vt -2.446107 -0.574118
vt 2.442700 -0.600000
vt -2.442700 -0.600000
vt 2.446107 -0.625882
vt -2.446107 -0.625882
vt 2.456097 -0.650000
vt -2.456097 -0.650000
vt 2.471989 -0.670711
vt -2.471989 -0.670711
vt 2.492700 -0.686603
vt -2.492700 -0.686603
vt 3.962500 -3.000000
vt -3.962500 -3.000000
vt -2.516818 -0.696593
vt -2.542700 -0.700000
vt -2.456097 0.650000
vt 2.456097 0.650000
vt -2.471989 0.670711
vt 2.471989 0.670711
vt -2.492700 0.686603
vt 2.492700 0.686603
vt -3.962500 3.000000
vt 3.962500 3.000000
vt 2.516818 0.696593
vt 2.542700 0.700000
vt 2.568582 0.696593
vt 2.592700 0.686603
vt 2.613411 0.670711
vt 2.629303 0.650000
vt 2.639293 0.625882
vt 2.642700 0.600000
vt 2.639293 0.574118
vt 2.639293 -0.574118
vt 2.642700 -0.600000
vt 2.629303 -0.550000
vt 2.629303 0.550000
vt 2.613411 0.529289
vt 2.613411 -0.529289
vt 2.592700 0.513397
vt 2.592700 -0.513397
vt 2.568582 0.503407
vt 2.568582 -0.503407
vt 2.542700 0.500000
vt 2.542700 -0.500000
vt 2.516818 -0.503407
vt 2.516818 0.503407
vt 2.492700 -0.513397
vt 2.492700 0.513397
vt 2.471989 -0.529289
vt 2.471989 0.529289
vt 2.456097 -0.550000
vt 2.456097 0.550000
vt -2.639293 -0.625882
vt -2.642700 -0.600000
vt -2.639293 -0.574118
vt -2.639293 0.574118
vt -2.629303 -0.550000
vt -2.629303 0.550000
vt -2.613411 0.529289
vt -2.613411 -0.529289
vt -2.592700 0.513397
vt -2.592700 -0.513397
vt -2.568582 0.503407
vt -2.568582 -0.503407
vt -2.542700 0.500000
vt -2.542700 -0.500000
vt -2.516818 -0.503407
vt -2.516818 0.503407
vt -2.492700 -0.513397
vt -2.492700 0.513397
vt -2.471989 -0.529289
vt -2.471989 0.529289
vt -2.456097 -0.550000
vt -2.456097 0.550000
vt -2.568582 -0.696593
vt -2.592700 -0.686603
vt -2.613411 -0.670711
vt -2.629303 -0.650000
vt -2.642700 0.600000
vt -2.639293 0.625882
vt -2.629303 0.650000
vt -2.613411 0.670711
vt -2.592700 0.686603
vt -2.568582 0.696593
vt -2.542700 0.700000
vt -2.516818 0.696593
vt 2.639293 -0.625882
vt 2.629303 -0.650000
vt 2.613411 -0.670711
vt 2.592700 -0.686603
vt 2.568582 -0.696593
vt 2.542700 -0.700000
vt 2.516818 -0.696593
vt 0.150000 0.287979
vt 0.300000 0.287979
vt 0.150000 0.314159
vt 0.300000 0.314159
vt 0.150000 -0.314159
vt 0.300000 -0.314159
vt 0.150000 -0.287979
vt 0.300000 -0.287979
vt 0.150000 -0.261799
vt 0.300000 -0.261799
vt 0.150000 -0.235619
vt 0.300000 -0.235619
vt 0.150000 -0.209440
vt 0.300000 -0.209440
vt 0.150000 -0.183260
vt 0.300000 -0.183260
vt 0.150000 -0.157080
vt 0.300000 -0.157080
vt 0.150000 -0.130900
vt 0.300000 -0.130900
vt 0.150000 -0.104720
vt 0.300000 -0.104720
vt 0.150000 -0.078540
vt 0.300000 -0.078540
vt 0.150000 -0.052360
vt 0.300000 -0.052360
vt 0.150000 -0.026180
vt 0.300000 -0.026180
vt 0.150000 0.000000
vt 0.300000 0.000000
vt 0.150000 0.026180
vt 0.300000 0.026180
vt 0.150000 0.052360
vt 0.300000 0.052360
vt 0.150000 0.078540
vt 0.300000 0.078540
vt 0.150000 0.104720
vt 0.300000 0.104720
vt 0.150000 0.130900
vt 0.300000 0.130900
vt 0.150000 0.157080
vt 0.300000 0.157080
vt 0.150000 0.183260
vt 0.300000 0.183260
vt 0.150000 0.209440
vt 0.300000 0.209440
vt 0.150000 0.235619
vt 0.300000 0.235619
vt 0.150000 0.261799
vt 0.300000 0.261799
vt 12.203200 0.000000
vt 8.871705 4.978841
vt 6.101600 -0.000000
vt 3.331495 4.978841
vt 14.128200 -0.000000
vt 10.796705 4.978841
vt 7.064100 -0.000000
vt 3.732605 -2.770105
vt -3.732605 -2.770105
vt -3.732605 2.770105
vt 3.732605 2.770105
vt 3.601616 5.382531
vt -3.000000 5.382531
vt -9.601616 5.382531
vt -3.962500 5.382531
vt -11.526616 5.382531
vt -7.064100 -0.000000
vt -7.564116 -0.000000
vt -7.064100 -6.101600
vt -7.564116 -6.601616
vt 0.000000 -6.601616
vt -7.064100 6.101600
vt -7.564116 6.601616
vt 0.000000 6.601616
vt -0.000000 6.101600
vt 7.064100 6.101600
vt 7.564116 0.000000
vt 7.564116 6.601616
vt 7.064100 -6.101600
vt 7.564116 -6.601616
vt 0.000000 -6.101600
s 0
f 1/1/1 2/2/1 4/3/1
f 4/3/1 2/2/1 3/4/1
f 2/5/2 5/2/2 3/6/2
f 3/6/2 5/2/2 6/4/2
f 5/1/3 7/2/3 6/3/3
f 6/3/3 7/2/3 8/4/3
f 7/5/4 1/2/4 8/6/4
f 8/6/4 1/2/4 4/4/4
f 10/7/5 68/8/5 9/9/5
f 9/9/5 68/8/5 69/10/5
f 9/9/5 69/10/5 32/11/5
f 32/11/5 69/10/5 70/12/5
f 32/11/5 70/12/5 82/13/5
f 82/13/5 70/12/5 44/14/5
f 82/13/5 44/14/5 81/15/5
f 81/15/5 44/14/5 45/16/5
f 81/15/5 45/16/5 104/17/5
f 104/17/5 45/16/5 46/18/5
f 104/17/5 46/18/5 103/19/5
f 103/19/5 46/18/5 47/20/5
f 103/19/5 47/20/5 102/21/5
f 102/21/5 47/20/5 48/22/5
f 102/21/5 48/22/5 101/23/5
f 101/23/5 48/22/5 49/24/5
f 101/23/5 49/24/5 3/25/5
f 3/25/5 49/24/5 4/26/5
f 4/26/5 49/24/5 50/27/5
f 4/26/6 50/27/6 51/28/6
f 68/8/5 10/7/5 67/29/5
f 67/29/5 10/7/5 11/30/5
f 67/29/5 11/30/5 66/31/5
f 66/31/5 11/30/5 12/32/5
f 66/31/5 12/32/5 65/33/5
f 65/33/5 12/32/5 13/34/5
f 65/33/5 13/34/5 8/35/5
f 8/35/5 13/34/5 6/36/5
f 6/36/5 13/34/5 14/37/5
f 6/36/5 14/37/5 15/38/5
f 15/38/5 16/39/5 6/36/5
f 6/36/5 16/39/5 17/40/5
f 6/36/5 17/40/5 18/41/5
f 18/41/5 19/42/5 6/36/5
f 6/36/5 19/42/5 20/43/5
f 6/36/5 20/43/5 21/44/5
f 21/44/5 22/45/5 6/36/5
f 6/36/5 22/45/5 3/25/5
f 3/25/5 22/45/5 92/46/5
f 3/25/5 92/46/5 93/47/5
f 92/46/5 22/45/5 91/48/5
f 91/48/5 22/45/5 23/49/5
f 91/48/5 23/49/5 24/50/5
f 91/48/5 24/50/5 90/51/5
f 90/51/5 24/50/5 25/52/5
f 90/51/5 25/52/5 89/53/5
f 89/53/5 25/52/5 26/54/5
f 89/53/5 26/54/5 88/55/5
f 88/55/5 26/54/5 27/56/5
f 88/55/5 27/56/5 87/57/5
f 87/57/5 27/56/5 86/58/5
f 86/58/5 27/56/5 28/59/5
f 86/58/5 28/59/5 85/60/5
f 85/60/5 28/59/5 29/61/5
f 85/60/5 29/61/5 84/62/5
f 84/62/5 29/61/5 30/63/5
f 84/62/5 30/63/5 83/64/5
f 83/64/5 30/63/5 31/65/5
f 83/64/5 31/65/5 32/11/5
f 56/66/5 33/67/5 4/26/5
f 4/26/7 33/67/7 34/68/7
f 4/26/5 34/68/5 80/69/5
f 80/69/5 34/68/5 35/70/5
f 80/69/5 35/70/5 79/71/5
f 79/71/5 35/70/5 78/72/5
f 78/72/5 35/70/5 36/73/5
f 78/72/5 36/73/5 77/74/5
f 77/74/5 36/73/5 37/75/5
f 77/74/5 37/75/5 76/76/5
f 76/76/5 37/75/5 38/77/5
f 76/76/5 38/77/5 75/78/5
f 75/78/5 38/77/5 39/79/5
f 75/78/5 39/79/5 40/80/5
f 75/78/5 40/80/5 74/81/5
f 74/81/5 40/80/5 41/82/5
f 74/81/5 41/82/5 73/83/5
f 73/83/5 41/82/5 42/84/5
f 73/83/5 42/84/5 72/85/5
f 72/85/5 42/84/5 43/86/5
f 72/85/5 43/86/5 71/87/5
f 71/87/5 43/86/5 44/14/5
f 71/87/5 44/14/5 70/12/5
f 51/28/5 52/88/5 4/26/5
f 4/26/5 52/88/5 53/89/5
f 4/26/5 53/89/5 54/90/5
f 54/90/5 55/91/5 4/26/5
f 4/26/5 55/91/5 56/66/5
f 80/69/6 57/92/6 8/35/6
f 8/35/5 57/92/5 58/93/5
f 8/35/5 58/93/5 59/94/5
f 59/94/5 60/95/5 8/35/5
f 8/35/5 60/95/5 61/96/5
f 8/35/5 61/96/5 62/97/5
f 62/97/5 63/98/5 8/35/5
f 8/35/5 63/98/5 64/99/5
f 8/35/5 64/99/5 65/33/5
f 4/26/5 80/69/5 8/35/5
f 82/13/5 83/64/5 32/11/5
f 93/47/5 94/100/5 3/25/5
f 3/25/5 94/100/5 95/101/5
f 3/25/5 95/101/5 96/102/5
f 96/102/5 97/103/5 3/25/5
f 3/25/5 97/103/5 98/104/5
f 3/25/5 98/104/5 99/105/5
f 99/105/5 100/106/5 3/25/5
f 3/25/5 100/106/5 101/23/5
f 56/107/8 128/108/8 33/109/9
f 33/109/9 128/108/8 105/110/9
f 33/111/10 105/112/10 34/113/11
f 34/113/11 105/112/10 106/114/11
f 34/113/12 106/114/12 35/115/13
f 35/115/14 106/114/12 107/116/14
f 35/115/15 107/116/15 36/117/16
f 36/117/16 107/116/15 108/118/16
f 36/117/17 108/118/17 37/119/18
f 37/119/18 108/118/17 109/120/18
f 37/119/19 109/120/19 38/121/20
f 38/121/20 109/120/19 110/122/20
f 38/121/21 110/122/21 39/123/22
f 39/123/22 110/122/21 111/124/22
f 39/123/23 111/124/23 40/125/24
f 40/125/24 111/124/23 112/126/24
f 40/125/25 112/126/25 41/127/26
f 41/127/26 112/126/25 113/128/26
f 41/127/27 113/128/28 42/129/29
f 42/129/30 113/128/27 114/130/30
f 42/129/31 114/130/31 43/131/32
f 43/131/32 114/130/33 115/132/32
f 43/131/34 115/132/34 44/133/35
f 44/133/35 115/132/34 116/134/35
f 44/133/36 116/134/36 45/135/37
f 45/135/37 116/134/38 117/136/37
f 45/135/39 117/136/39 46/137/40
f 46/137/41 117/136/39 118/138/41
f 46/137/42 118/138/42 47/139/43
f 47/139/43 118/138/42 119/140/43
f 47/139/44 119/140/44 48/141/45
f 48/141/45 119/140/44 120/142/45
f 48/141/46 120/142/46 49/143/47
f 49/143/47 120/142/46 121/144/47
f 49/143/48 121/144/48 50/145/49
f 50/145/49 121/144/48 122/146/49
f 50/145/50 122/146/50 51/147/51
f 51/147/51 122/146/52 123/148/51
f 51/147/53 123/148/53 52/149/54
f 52/149/55 123/148/53 124/150/55
f 52/149/56 124/150/56 53/151/57
f 53/151/57 124/150/56 125/152/57
f 53/151/58 125/152/58 54/153/59
f 54/153/59 125/152/58 126/154/59
f 54/153/60 126/154/60 55/155/61
f 55/155/62 126/154/63 127/156/62
f 55/155/64 127/156/64 56/107/65
f 56/107/65 127/156/64 128/108/65
f 104/107/8 152/108/8 81/109/9
f 81/109/9 152/108/8 129/110/9
f 81/111/10 129/112/10 82/113/11
f 82/113/11 129/112/10 130/114/11
f 82/113/12 130/114/12 83/115/14
f 83/115/14 130/114/12 131/116/14
f 83/115/15 131/116/15 84/117/16
f 84/117/16 131/116/15 132/118/16
f 84/117/17 132/118/17 85/119/18
f 85/119/18 132/118/17 133/120/18
f 85/119/19 133/120/19 86/121/20
f 86/121/20 133/120/19 134/122/20
f 86/121/21 134/122/21 87/123/22
f 87/123/22 134/122/21 135/124/22
f 87/123/23 135/124/23 88/125/24
f 88/125/24 135/124/23 136/126/24
f 88/125/25 136/126/25 89/127/26
f 89/127/26 136/126/25 137/128/26
f 89/127/28 137/128/28 90/129/29
f 90/129/31 137/128/27 138/130/31
f 90/129/33 138/130/33 91/131/32
f 91/131/32 138/130/33 139/132/32
f 91/131/34 139/132/34 92/133/35
f 92/133/35 139/132/34 140/134/35
f 92/133/36 140/134/36 93/135/37
f 93/135/37 140/134/38 141/136/37
f 93/135/39 141/136/39 94/137/40
f 94/137/41 141/136/39 142/138/41
f 94/137/42 142/138/42 95/139/43
f 95/139/43 142/138/42 143/140/43
f 95/139/44 143/140/44 96/141/45
f 96/141/45 143/140/44 144/142/45
f 96/141/66 144/142/66 97/143/47
f 97/143/47 144/142/66 145/144/47
f 97/143/48 145/144/48 98/145/49
f 98/145/49 145/144/48 146/146/49
f 98/145/50 146/146/50 99/147/51
f 99/147/51 146/146/67 147/148/51
f 99/147/53 147/148/53 100/149/68
f 100/149/55 147/148/53 148/150/55
f 100/149/56 148/150/56 101/151/57
f 101/151/57 148/150/56 149/152/57
f 101/151/58 149/152/58 102/153/59
f 102/153/59 149/152/58 150/154/59
f 102/153/60 150/154/60 103/155/61
f 103/155/62 150/154/63 151/156/62
f 103/155/64 151/156/64 104/107/65
f 104/107/65 151/156/64 152/108/65
f 80/107/8 176/108/8 57/109/9
f 57/109/9 176/108/8 153/110/9
f 57/111/10 153/112/10 58/113/11
f 58/113/11 153/112/10 154/114/11
f 58/113/12 154/114/12 59/115/14
f 59/115/14 154/114/12 155/116/14
f 59/115/15 155/116/15 60/117/16
f 60/117/16 155/116/15 156/118/16
f 60/117/17 156/118/17 61/119/18
f 61/119/18 156/118/17 157/120/18
f 61/119/19 157/120/19 62/121/20
f 62/121/20 157/120/19 158/122/20
f 62/121/21 158/122/21 63/123/22
f 63/123/22 158/122/21 159/124/22
f 63/123/23 159/124/23 64/125/24
f 64/125/24 159/124/23 160/126/24
f 64/125/25 160/126/25 65/127/26
f 65/127/26 160/126/25 161/128/26
f 65/127/27 161/128/28 66/129/29
f 66/129/30 161/128/27 162/130/30
f 66/129/33 162/130/33 67/131/32
f 67/131/32 162/130/33 163/132/32
f 67/131/34 163/132/34 68/133/35
f 68/133/35 163/132/34 164/134/35
f 68/133/38 164/134/38 69/135/37
f 69/135/37 164/134/36 165/136/37
f 69/135/39 165/136/39 70/137/40
f 70/137/40 165/136/39 166/138/40
f 70/137/42 166/138/42 71/139/43
f 71/139/43 166/138/42 167/140/43
f 71/139/44 167/140/44 72/141/45
f 72/141/45 167/140/44 168/142/45
f 72/141/46 168/142/46 73/143/47
f 73/143/47 168/142/46 169/144/47
f 73/143/48 169/144/48 74/145/49
f 74/145/49 169/144/48 170/146/49
f 74/145/50 170/146/50 75/147/51
f 75/147/51 170/146/67 171/148/51
f 75/147/53 171/148/53 76/149/68
f 76/149/55 171/148/53 172/150/55
f 76/149/56 172/150/56 77/151/57
f 77/151/57 172/150/56 173/152/57
f 77/151/58 173/152/58 78/153/59
f 78/153/59 173/152/58 174/154/59
f 78/153/60 174/154/60 79/155/61
f 79/155/61 174/154/63 175/156/61
f 79/155/62 175/156/62 80/107/65
f 80/107/65 175/156/64 176/108/65
f 32/107/8 200/108/8 9/109/9
f 9/109/9 200/108/8 177/110/9
f 9/111/10 177/112/10 10/113/11
f 10/113/11 177/112/10 178/114/11
f 10/113/12 178/114/12 11/115/14
f 11/115/14 178/114/12 179/116/14
f 11/115/15 179/116/15 12/117/16
f 12/117/16 179/116/15 180/118/16
f 12/117/17 180/118/17 13/119/18
f 13/119/18 180/118/17 181/120/18
f 13/119/19 181/120/19 14/121/20
f 14/121/20 181/120/19 182/122/20
f 14/121/21 182/122/21 15/123/22
f 15/123/22 182/122/21 183/124/22
f 15/123/23 183/124/23 16/125/24
f 16/125/24 183/124/23 184/126/24
f 16/125/25 184/126/25 17/127/26
f 17/127/26 184/126/25 185/128/26
f 17/127/28 185/128/28 18/129/29
f 18/129/31 185/128/27 186/130/31
f 18/129/33 186/130/33 19/131/32
f 19/131/32 186/130/33 187/132/32
f 19/131/34 187/132/34 20/133/35
f 20/133/35 187/132/34 188/134/35
f 20/133/38 188/134/38 21/135/37
f 21/135/37 188/134/36 189/136/37
f 21/135/39 189/136/39 22/137/40
f 22/137/40 189/136/39 190/138/40
f 22/137/42 190/138/42 23/139/43
f 23/139/43 190/138/42 191/140/43
f 23/139/44 191/140/44 24/141/45
f 24/141/45 191/140/44 192/142/45
f 24/141/66 192/142/66 25/143/47
f 25/143/47 192/142/66 193/144/47
f 25/143/48 193/144/48 26/145/49
f 26/145/49 193/144/48 194/146/49
f 26/145/50 194/146/50 27/147/51
f 27/147/1 194/146/67 195/148/1
f 27/147/1 195/148/1 28/149/68
f 28/149/55 195/148/53 196/150/55
f 28/149/56 196/150/56 29/151/57
f 29/151/57 196/150/56 197/152/57
f 29/151/58 197/152/58 30/153/59
f 30/153/59 197/152/58 198/154/59
f 30/153/60 198/154/60 31/155/61
f 31/155/61 198/154/63 199/156/61
f 31/155/64 199/156/64 32/107/65
f 32/107/65 199/156/64 200/108/65
f 205/157/69 201/158/69 204/159/69
f 204/159/69 201/158/69 202/160/69
f 204/159/69 202/160/69 203/2/69
f 208/161/70 206/162/70 207/163/70
f 207/163/70 206/162/70 201/160/70
f 207/163/70 201/160/70 205/2/70
f 211/157/71 209/158/71 210/159/71
f 210/159/71 209/158/71 206/160/71
f 210/159/71 206/160/71 208/2/71
f 203/161/72 202/162/72 212/163/72
f 212/163/72 202/162/72 209/160/72
f 212/163/72 209/160/72 211/2/72
f 106/46/73 105/47/73 202/164/73
f 202/164/73 105/47/73 128/100/73
f 202/164/73 128/100/73 127/101/73
f 127/101/73 126/102/73 202/164/73
f 202/164/73 126/102/73 125/103/73
f 202/164/73 125/103/73 124/104/73
f 124/104/73 123/105/73 202/164/73
f 202/164/73 123/105/73 122/106/73
f 202/164/73 122/106/73 121/23/73
f 120/21/73 150/22/73 121/23/73
f 121/23/73 150/22/73 149/24/73
f 121/23/73 149/24/73 202/164/73
f 202/164/73 149/24/73 209/165/73
f 209/165/73 149/24/73 148/27/73
f 209/165/73 148/27/73 147/28/73
f 150/22/73 120/21/73 151/20/73
f 151/20/73 120/21/73 119/19/73
f 151/20/73 119/19/73 152/18/73
f 152/18/74 119/19/74 118/17/74
f 152/18/73 118/17/73 129/16/73
f 129/16/73 118/17/73 117/15/73
f 129/16/73 117/15/73 130/14/73
f 130/14/73 117/15/73 116/13/73
f 130/14/75 116/13/75 131/86/75
f 131/86/73 116/13/73 115/64/73
f 131/86/73 115/64/73 199/87/73
f 199/87/73 115/64/73 167/65/73
f 199/87/73 167/65/73 200/12/73
f 200/12/76 167/65/76 166/11/76
f 200/12/73 166/11/73 177/10/73
f 177/10/73 166/11/73 165/9/73
f 177/10/73 165/9/73 178/8/73
f 178/8/73 165/9/73 164/7/73
f 178/8/75 164/7/75 179/29/75
f 179/29/73 164/7/73 163/30/73
f 179/29/73 163/30/73 180/31/73
f 180/31/73 163/30/73 162/32/73
f 180/31/73 162/32/73 181/33/73
f 181/33/73 162/32/73 161/34/73
f 181/33/73 161/34/73 206/166/73
f 206/166/73 161/34/73 201/167/73
f 201/167/73 161/34/73 160/37/73
f 201/167/73 160/37/73 159/38/73
f 167/65/73 115/64/73 168/63/73
f 168/63/73 115/64/73 114/62/73
f 168/63/73 114/62/73 169/61/73
f 169/61/73 114/62/73 113/60/73
f 169/61/73 113/60/73 170/59/73
f 170/59/73 113/60/73 112/58/73
f 170/59/73 112/58/73 171/56/73
f 171/56/73 112/58/73 111/57/73
f 171/56/73 111/57/73 110/55/73
f 171/56/73 110/55/73 172/54/73
f 172/54/73 110/55/73 109/53/73
f 172/54/73 109/53/73 173/52/73
f 173/52/73 109/53/73 108/51/73
f 173/52/73 108/51/73 174/50/73
f 174/50/73 108/51/73 107/48/73
f 174/50/73 107/48/73 175/49/73
f 175/49/73 107/48/73 176/45/73
f 176/45/73 107/48/73 106/46/73
f 176/45/73 106/46/73 202/164/73
f 147/28/73 146/88/73 209/165/73
f 209/165/73 146/88/73 145/89/73
f 209/165/73 145/89/73 144/90/73
f 144/90/73 143/91/73 209/165/73
f 209/165/73 143/91/73 142/66/73
f 209/165/73 142/66/73 141/67/73
f 141/67/73 140/68/73 209/165/73
f 209/165/73 140/68/73 190/69/73
f 209/165/73 190/69/73 206/166/73
f 206/166/73 190/69/73 189/92/73
f 206/166/73 189/92/73 188/93/73
f 140/68/73 139/70/73 190/69/73
f 190/69/73 139/70/73 191/71/73
f 191/71/73 139/70/73 192/72/73
f 192/72/73 139/70/73 138/73/73
f 192/72/73 138/73/73 193/74/73
f 193/74/73 138/73/73 137/75/73
f 193/74/73 137/75/73 194/76/73
f 194/76/73 137/75/73 136/77/73
f 194/76/73 136/77/73 195/78/73
f 195/78/73 136/77/73 135/79/73
f 195/78/73 135/79/73 134/80/73
f 195/78/73 134/80/73 196/81/73
f 196/81/73 134/80/73 133/82/73
f 196/81/73 133/82/73 197/83/73
f 197/83/73 133/82/73 132/84/73
f 197/83/73 132/84/73 198/85/73
f 198/85/73 132/84/73 131/86/73
f 198/85/73 131/86/73 199/87/73
f 154/43/73 153/44/73 201/167/73
f 201/167/73 153/44/73 176/45/73
f 201/167/73 176/45/73 202/164/73
f 159/38/73 158/39/73 201/167/73
f 201/167/73 158/39/73 157/40/73
f 201/167/73 157/40/73 156/41/73
f 156/41/73 155/42/73 201/167/73
f 201/167/73 155/42/73 154/43/73
f 188/93/73 187/94/73 206/166/73
f 206/166/73 187/94/73 186/95/73
f 206/166/73 186/95/73 185/96/73
f 185/96/73 184/97/73 206/166/73
f 206/166/73 184/97/73 183/98/73
f 206/166/73 183/98/73 182/99/73
f 182/99/73 181/33/73 206/166/73
f 213/168/77 214/169/77 2/2/77
f 2/2/77 214/169/77 5/5/77
f 5/5/77 214/169/77 215/170/77
f 215/168/78 216/171/78 5/2/78
f 5/2/78 216/171/78 7/1/78
f 7/1/78 216/171/78 217/172/78
f 217/168/79 218/169/79 7/2/79
f 7/2/79 218/169/79 1/5/79
f 1/5/79 218/169/79 219/170/79
f 219/168/80 220/171/80 1/2/80
f 1/2/80 220/171/80 2/1/80
f 2/1/80 220/171/80 213/172/80
f 204/173/73 218/174/73 205/175/73
f 205/175/73 218/174/73 217/176/73
f 205/175/73 217/176/73 216/177/73
f 204/173/73 203/178/73 218/174/73
f 218/174/73 203/178/73 219/179/73
f 219/179/73 203/178/73 220/180/73
f 220/180/73 203/178/73 212/181/73
f 220/180/73 212/181/73 211/182/73
f 210/163/73 214/183/73 211/182/73
f 211/182/73 214/183/73 213/184/73
f 211/182/73 213/184/73 220/180/73
f 210/163/73 208/185/73 214/183/73
f 214/183/73 208/185/73 215/186/73
f 215/186/73 208/185/73 216/177/73
f 216/177/73 208/185/73 207/187/73
f 216/177/73 207/187/73 205/175/73
